<svg width="30" height="32" viewBox="0 0 30 32" fill="none" xmlns="http://www.w3.org/2000/svg">
<path d="M29 7.35898L25.4779 7.29676L23.692 4.40939L22.8083 7.76347L19 8.41685L22.4599 9.87921L22.771 10.0099L22.0367 13.1835L24.1898 11.2731L27.687 13.1835L26.2744 9.3316L29 7.35898Z" fill="#E43A12"/>
<path d="M3.19731 5.03806L5.60556 13.3426L0 19.6955L8.67831 19.3633L12.8306 28L14.2008 18.8651V18.0346L22.2977 17.4948L16.1939 13.7162L18.1869 4L9.88238 10.1453L3.19731 5.03806Z" fill="#E43A12"/>
<path d="M7.56139 29.625L6.37277 27.4881L7.38838 25.3452L5.18415 26.0536L3.51004 24L3.88392 26.625L3.91741 26.8571L1.875 27.5952L3.69419 28.1905L3.83369 31L5.5078 28.7321L7.56139 29.625Z" fill="#E43A12"/>
<path d="M20.4292 22.3185L20.9878 24.3733L19.6875 25.9452L21.7006 25.863L22.6638 28L22.8949 25.6884V25.4829L24.7731 25.339L23.3573 24.4144L23.8196 22L21.8932 23.5308L20.4292 22.3185Z" fill="#E43A12"/>
</svg>
