<svg width="408" height="32" viewBox="0 0 408 32" fill="none" xmlns="http://www.w3.org/2000/svg">
<path d="M29 7.35898L25.4779 7.29676L23.692 4.40939L22.8083 7.76347L19 8.41685L22.4599 9.87921L22.771 10.0099L22.0367 13.1835L24.1898 11.2731L27.687 13.1835L26.2744 9.3316L29 7.35898Z" fill="#E43A12"/>
<path d="M3.19731 5.03806L5.60556 13.3426L0 19.6955L8.67831 19.3633L12.8306 28L14.2008 18.8651V18.0346L22.2977 17.4948L16.1939 13.7162L18.1869 4L9.88238 10.1453L3.19731 5.03806Z" fill="#E43A12"/>
<path d="M7.56139 29.625L6.37277 27.4881L7.38838 25.3452L5.18415 26.0536L3.51004 24L3.88392 26.625L3.91741 26.8571L1.875 27.5952L3.69419 28.1905L3.83369 31L5.5078 28.7321L7.56139 29.625Z" fill="#E43A12"/>
<path d="M20.4292 22.3185L20.9878 24.3733L19.6875 25.9452L21.7006 25.863L22.6638 28L22.8949 25.6884V25.4829L24.7731 25.339L23.3573 24.4144L23.8196 22L21.8932 23.5308L20.4292 22.3185Z" fill="#E43A12"/>
<path d="M38.8984 10.2422C38.638 10.1641 38.4818 9.99479 38.4297 9.73438C38.3646 9.55208 38.3841 9.35677 38.4883 9.14844C38.5924 8.92708 38.7552 8.80339 38.9766 8.77734C40.2396 8.58203 41.5026 8.47786 42.7656 8.46484C44.0417 8.4388 45.3177 8.41927 46.5938 8.40625C46.8411 8.40625 47.0299 8.48438 47.1602 8.64062C47.2904 8.79688 47.3555 8.97266 47.3555 9.16797C47.3555 9.36328 47.2904 9.54557 47.1602 9.71484C47.0299 9.87109 46.8411 9.94922 46.5938 9.94922C45.5781 9.97526 44.556 9.98828 43.5273 9.98828C42.4987 9.98828 41.4701 10.0404 40.4414 10.1445C40.4674 10.6654 40.5 11.1862 40.5391 11.707C40.5781 12.2148 40.6172 12.7292 40.6562 13.25C41.6458 13.1979 42.6289 13.1328 43.6055 13.0547C44.5951 12.9766 45.5846 12.9635 46.5742 13.0156C46.8216 13.0286 47.0104 13.1198 47.1406 13.2891C47.2708 13.4583 47.3359 13.6406 47.3359 13.8359C47.3359 14.0312 47.2708 14.207 47.1406 14.3633C47.0104 14.5195 46.8216 14.5911 46.5742 14.5781C45.5977 14.526 44.6276 14.5391 43.6641 14.6172C42.7135 14.6953 41.75 14.7604 40.7734 14.8125C40.8516 15.75 40.9232 16.6875 40.9883 17.625C41.0664 18.5495 41.1185 19.4805 41.1445 20.418C41.6003 20.3138 42.0625 20.2161 42.5312 20.125C43 20.0208 43.4688 19.9427 43.9375 19.8906C44.4062 19.8255 44.875 19.793 45.3438 19.793C45.8125 19.793 46.2812 19.832 46.75 19.9102C46.9583 19.9492 47.1146 20.0729 47.2188 20.2812C47.3229 20.4896 47.349 20.6849 47.2969 20.8672C47.2318 21.0885 47.1081 21.2448 46.9258 21.3359C46.7435 21.4271 46.5417 21.4531 46.3203 21.4141C45.9036 21.3359 45.4805 21.3099 45.0508 21.3359C44.6211 21.362 44.1979 21.4076 43.7812 21.4727C43.2995 21.5508 42.8177 21.6419 42.3359 21.7461C41.8672 21.8503 41.3984 21.9609 40.9297 22.0781C40.7083 22.1302 40.5 22.0911 40.3047 21.9609C40.1224 21.9349 39.9596 21.8633 39.8164 21.7461C39.6732 21.6289 39.6016 21.4531 39.6016 21.2188C39.5755 20.112 39.5234 19.0182 39.4453 17.9375C39.3802 16.8568 39.3021 15.7695 39.2109 14.6758C39.0677 14.5326 38.9831 14.3568 38.957 14.1484C38.944 13.9271 39.0026 13.7383 39.1328 13.582C39.0286 12.4753 38.9505 11.362 38.8984 10.2422ZM49.7773 17.6641C49.4388 17.4167 49.1979 17.1107 49.0547 16.7461C48.9115 16.3685 48.9049 15.9714 49.0352 15.5547C49.1654 15.1771 49.3672 14.8385 49.6406 14.5391C49.9141 14.2396 50.2266 13.9987 50.5781 13.8164C50.9688 13.6081 51.3854 13.4453 51.8281 13.3281C52.2708 13.2109 52.7201 13.1458 53.1758 13.1328C53.6315 13.1198 54.0807 13.1654 54.5234 13.2695C54.9792 13.3607 55.4089 13.5104 55.8125 13.7188C56.0339 13.8359 56.1576 13.9922 56.1836 14.1875C56.2096 14.3828 56.1706 14.5651 56.0664 14.7344C55.9753 14.9036 55.832 15.0273 55.6367 15.1055C55.4414 15.1836 55.2331 15.1641 55.0117 15.0469C54.6992 14.8776 54.3477 14.7669 53.957 14.7148C53.5664 14.6628 53.1693 14.6628 52.7656 14.7148C52.375 14.7539 52.0039 14.8516 51.6523 15.0078C51.3008 15.1641 51.0078 15.3659 50.7734 15.6133C50.7083 15.6784 50.6628 15.724 50.6367 15.75C50.6237 15.776 50.5977 15.8346 50.5586 15.9258L50.5195 16.1406C50.5586 16.2578 50.5911 16.3294 50.6172 16.3555C50.8776 16.5247 51.1445 16.6354 51.418 16.6875C51.7044 16.7266 51.9909 16.7526 52.2773 16.7656C52.681 16.7917 53.0911 16.8177 53.5078 16.8438C53.9375 16.8568 54.3477 16.9089 54.7383 17C55.1419 17.0911 55.513 17.2409 55.8516 17.4492C56.1901 17.6576 56.4766 17.9635 56.7109 18.3672C56.9714 18.8229 57.0885 19.2982 57.0625 19.793C57.0495 20.2747 56.8607 20.7109 56.4961 21.1016C56.1315 21.4922 55.7083 21.7656 55.2266 21.9219C54.7448 22.0651 54.2565 22.1693 53.7617 22.2344C53.319 22.2865 52.8568 22.2995 52.375 22.2734C51.9062 22.2474 51.4505 22.1693 51.0078 22.0391C50.5781 21.9219 50.1745 21.7396 49.7969 21.4922C49.4193 21.2318 49.1068 20.8932 48.8594 20.4766C48.7422 20.2682 48.7227 20.0729 48.8008 19.8906C48.8789 19.6953 48.9961 19.5521 49.1523 19.4609C49.3216 19.3568 49.5039 19.3177 49.6992 19.3438C49.9076 19.3698 50.0768 19.487 50.207 19.6953C50.3893 19.9948 50.6432 20.2227 50.9688 20.3789C51.2943 20.5352 51.6458 20.6458 52.0234 20.7109C52.4141 20.763 52.8047 20.776 53.1953 20.75C53.5859 20.7109 53.9375 20.6589 54.25 20.5938C54.4193 20.5547 54.5885 20.5026 54.7578 20.4375C54.9401 20.3594 55.0898 20.2682 55.207 20.1641C55.3372 20.0599 55.4284 19.9427 55.4805 19.8125C55.5326 19.6693 55.526 19.513 55.4609 19.3438C55.3307 19.0182 55.1094 18.7839 54.7969 18.6406C54.4974 18.4974 54.1784 18.4128 53.8398 18.3867C53.5013 18.3607 53.1562 18.3477 52.8047 18.3477C52.4531 18.3477 52.1016 18.3346 51.75 18.3086C51.3984 18.2695 51.0534 18.2044 50.7148 18.1133C50.3763 18.0221 50.0638 17.8724 49.7773 17.6641ZM64.4844 15.1836C64.7318 15.1836 64.9141 15.2617 65.0312 15.418C65.1615 15.5742 65.2266 15.75 65.2266 15.9453C65.2266 16.1406 65.1615 16.3229 65.0312 16.4922C64.9141 16.6484 64.7318 16.7266 64.4844 16.7266C64.1719 16.7396 63.8594 16.7396 63.5469 16.7266C63.2474 16.7005 62.9479 16.6745 62.6484 16.6484C62.6615 17.6771 62.6419 18.7057 62.5898 19.7344C62.5508 20.763 62.4466 21.7852 62.2773 22.8008C62.2513 23.0221 62.1341 23.1849 61.9258 23.2891C61.7174 23.3932 61.5156 23.4128 61.3203 23.3477C61.099 23.2826 60.9427 23.1589 60.8516 22.9766C60.7734 22.8073 60.7539 22.612 60.793 22.3906C60.9492 21.401 61.0339 20.4115 61.0469 19.4219C61.0729 18.4323 61.0729 17.4362 61.0469 16.4336C60.5521 16.3555 60.0508 16.2773 59.543 16.1992C59.0352 16.1081 58.5339 16.0299 58.0391 15.9648C57.8177 15.9388 57.6615 15.8216 57.5703 15.6133C57.4661 15.3919 57.4401 15.1901 57.4922 15.0078C57.5573 14.7865 57.681 14.6367 57.8633 14.5586C58.0456 14.4674 58.2409 14.4349 58.4492 14.4609C58.8789 14.526 59.3086 14.5977 59.7383 14.6758C60.168 14.7409 60.6042 14.806 61.0469 14.8711C61.0339 14.806 61.0273 14.7083 61.0273 14.5781C61.0273 13.4062 61.0208 12.2474 61.0078 11.1016C61.0078 9.95573 61.0664 8.79688 61.1836 7.625C61.2096 7.41667 61.2878 7.23438 61.418 7.07812C61.5612 6.92188 61.7435 6.84375 61.9648 6.84375C62.1602 6.84375 62.3424 6.92188 62.5117 7.07812C62.694 7.23438 62.7721 7.41667 62.7461 7.625C62.6159 8.875 62.5508 10.1185 62.5508 11.3555C62.5638 12.5794 62.5833 13.8229 62.6094 15.0859C62.9219 15.112 63.2344 15.138 63.5469 15.1641C63.8594 15.1771 64.1719 15.1836 64.4844 15.1836ZM66.5938 14.0508C66.6068 13.8034 66.6979 13.6211 66.8672 13.5039C67.0365 13.3737 67.2188 13.3086 67.4141 13.3086C67.6094 13.3086 67.7786 13.3737 67.9219 13.5039C68.0781 13.6211 68.1497 13.8034 68.1367 14.0508C68.1367 14.1289 68.1302 14.2135 68.1172 14.3047C68.1172 14.3828 68.1172 14.4609 68.1172 14.5391C68.5339 14.3307 68.9701 14.1549 69.4258 14.0117C69.8945 13.8555 70.3568 13.7578 70.8125 13.7188C71.2812 13.6797 71.7305 13.7188 72.1602 13.8359C72.6029 13.9401 73.0065 14.1484 73.3711 14.4609C73.5534 14.6302 73.6315 14.8125 73.6055 15.0078C73.5924 15.2031 73.5143 15.3724 73.3711 15.5156C73.2409 15.6458 73.0716 15.7305 72.8633 15.7695C72.6549 15.7956 72.4531 15.7305 72.2578 15.5742C72.1146 15.457 71.9518 15.3724 71.7695 15.3203C71.6003 15.2682 71.4115 15.2487 71.2031 15.2617C71.0078 15.2617 70.806 15.2812 70.5977 15.3203C70.4023 15.3594 70.2135 15.4049 70.0312 15.457C69.3411 15.6784 68.6966 15.9714 68.0977 16.3359C68.1237 16.974 68.1628 17.612 68.2148 18.25C68.2669 18.7839 68.3125 19.3372 68.3516 19.9102C68.3906 20.4701 68.5013 21.0039 68.6836 21.5117C68.7617 21.7461 68.7422 21.9414 68.625 22.0977C68.5208 22.2669 68.3711 22.3776 68.1758 22.4297C67.9935 22.4818 67.7982 22.4688 67.5898 22.3906C67.3945 22.3125 67.2578 22.1562 67.1797 21.9219C67.0755 21.6224 67.0039 21.3164 66.9648 21.0039C66.9258 20.6914 66.8867 20.3789 66.8477 20.0664C66.8216 19.7669 66.7891 19.4674 66.75 19.168C66.724 18.8555 66.6979 18.5495 66.6719 18.25C66.6068 17.5469 66.5612 16.8503 66.5352 16.1602C66.5221 15.457 66.5417 14.7539 66.5938 14.0508ZM75.0898 14.4219C75.3372 14.0833 75.6302 13.7839 75.9688 13.5234C76.3203 13.263 76.6914 13.0612 77.082 12.918C77.4727 12.7617 77.8763 12.6836 78.293 12.6836C78.7096 12.6706 79.1263 12.7487 79.543 12.918C79.9466 13.0742 80.3112 13.2891 80.6367 13.5625C80.9622 13.8229 81.2161 14.1615 81.3984 14.5781C81.5417 14.8906 81.6263 15.2292 81.6523 15.5938C81.6784 15.9583 81.5807 16.2904 81.3594 16.5898C81.1641 16.8633 80.9232 17.0716 80.6367 17.2148C80.3633 17.3581 80.0638 17.4622 79.7383 17.5273C79.4258 17.5924 79.1003 17.625 78.7617 17.625C78.4362 17.625 78.1237 17.6185 77.8242 17.6055C77.4857 17.5924 77.1471 17.5664 76.8086 17.5273C76.4831 17.4883 76.151 17.4492 75.8125 17.4102C75.9167 17.9961 76.125 18.5169 76.4375 18.9727C76.75 19.4284 77.1732 19.7734 77.707 20.0078C77.8503 20.0599 77.9609 20.099 78.0391 20.125C78.0781 20.138 78.1107 20.151 78.1367 20.1641C78.1758 20.1641 78.2148 20.1641 78.2539 20.1641C78.3581 20.1771 78.4427 20.1901 78.5078 20.2031C78.5859 20.2031 78.6576 20.1966 78.7227 20.1836C78.8138 20.1706 78.8724 20.1641 78.8984 20.1641C78.9375 20.151 78.9766 20.138 79.0156 20.125C79.1589 20.0859 79.2826 20.0404 79.3867 19.9883C79.5039 19.9362 79.6406 19.8516 79.7969 19.7344C79.875 19.6693 79.9792 19.5716 80.1094 19.4414C80.2396 19.3112 80.3503 19.194 80.4414 19.0898C80.5716 18.9076 80.7279 18.7839 80.9102 18.7188C81.1055 18.6536 81.3008 18.6797 81.4961 18.7969C81.6654 18.901 81.7826 19.0638 81.8477 19.2852C81.9258 19.4935 81.8997 19.6888 81.7695 19.8711C81.3919 20.3789 80.9427 20.8151 80.4219 21.1797C79.9141 21.5312 79.3281 21.7201 78.6641 21.7461C78.1302 21.7721 77.6159 21.681 77.1211 21.4727C76.6263 21.2513 76.1901 20.9583 75.8125 20.5938C75.3438 20.138 74.9727 19.6107 74.6992 19.0117C74.4258 18.4128 74.276 17.8008 74.25 17.1758C74.1328 17.0846 74.0417 16.974 73.9766 16.8438C73.9245 16.7005 73.9049 16.5573 73.918 16.4141C73.944 16.2708 73.9961 16.1406 74.0742 16.0234C74.1523 15.8932 74.2695 15.8086 74.4258 15.7695C74.569 15.2878 74.7904 14.8385 75.0898 14.4219ZM79.7773 14.8906C79.6341 14.7083 79.4128 14.5456 79.1133 14.4023C78.8659 14.2982 78.5729 14.2461 78.2344 14.2461C77.9089 14.2461 77.6289 14.3047 77.3945 14.4219C77.0951 14.5651 76.8281 14.7669 76.5938 15.0273C76.3594 15.2747 76.1706 15.5547 76.0273 15.8672C76.3398 15.9062 76.6523 15.9453 76.9648 15.9844C77.2773 16.0234 77.5898 16.0495 77.9023 16.0625C78.0716 16.0625 78.2409 16.0625 78.4102 16.0625C78.5794 16.0625 78.7487 16.056 78.918 16.043C78.9701 16.043 79.0156 16.043 79.0547 16.043C79.1068 16.0299 79.1589 16.0234 79.2109 16.0234C79.3281 15.9974 79.4128 15.9844 79.4648 15.9844C79.5299 15.9714 79.5951 15.9518 79.6602 15.9258C79.7122 15.9128 79.7773 15.8932 79.8555 15.8672C79.9206 15.8411 79.9596 15.8216 79.9727 15.8086C79.9857 15.7956 80.0052 15.7826 80.0312 15.7695L80.0898 15.5352C80.0638 15.4831 80.0443 15.4375 80.0312 15.3984C80.0312 15.3464 80.0182 15.3008 79.9922 15.2617C79.9792 15.2227 79.9466 15.1641 79.8945 15.0859C79.8555 15.0078 79.8164 14.9427 79.7773 14.8906ZM84.4844 6.66797C84.7188 6.66797 84.901 6.74609 85.0312 6.90234C85.1615 7.05859 85.2396 7.24089 85.2656 7.44922C85.3958 8.6862 85.4674 9.92318 85.4805 11.1602C85.4935 12.3971 85.474 13.6341 85.4219 14.8711C85.3828 16.1081 85.3177 17.3451 85.2266 18.582C85.1354 19.819 85.0443 21.0495 84.9531 22.2734C84.9271 22.4948 84.8424 22.6771 84.6992 22.8203C84.569 22.9766 84.3932 23.0547 84.1719 23.0547C83.9766 23.0547 83.7943 22.9766 83.625 22.8203C83.4557 22.6771 83.3776 22.4948 83.3906 22.2734C83.4818 21.0495 83.5729 19.819 83.6641 18.582C83.7682 17.3451 83.8398 16.1081 83.8789 14.8711C83.931 13.6341 83.9505 12.3971 83.9375 11.1602C83.9245 9.92318 83.8529 8.6862 83.7227 7.44922C83.6966 7.24089 83.7682 7.05859 83.9375 6.90234C84.1068 6.74609 84.2891 6.66797 84.4844 6.66797ZM88.8789 21.4727C88.4362 21.2773 88.0846 21.0104 87.8242 20.6719C87.5768 20.3203 87.401 19.9362 87.2969 19.5195C87.2057 19.1029 87.1797 18.6732 87.2188 18.2305C87.2578 17.7747 87.349 17.3385 87.4922 16.9219C87.6094 16.5964 87.7396 16.2578 87.8828 15.9062C88.0391 15.5547 88.2214 15.2292 88.4297 14.9297C88.638 14.6302 88.8854 14.3763 89.1719 14.168C89.4583 13.9466 89.7969 13.8034 90.1875 13.7383C90.5911 13.6732 90.9948 13.6536 91.3984 13.6797C91.8151 13.6927 92.2253 13.7318 92.6289 13.7969C92.8112 13.8229 92.987 13.8685 93.1562 13.9336C93.3255 13.9857 93.4948 14.0443 93.6641 14.1094C93.6771 13.9141 93.7617 13.7513 93.918 13.6211C94.0872 13.4909 94.263 13.4258 94.4453 13.4258C94.6667 13.4258 94.8424 13.5039 94.9727 13.6602C95.1159 13.8034 95.2005 13.9792 95.2266 14.1875C95.2917 14.7865 95.3177 15.3854 95.3047 15.9844C95.3047 16.5833 95.2852 17.1823 95.2461 17.7812C95.2201 18.3802 95.194 18.9792 95.168 19.5781C95.1549 20.1771 95.1615 20.776 95.1875 21.375C95.2005 21.6224 95.1224 21.8112 94.9531 21.9414C94.7969 22.0586 94.6211 22.1172 94.4258 22.1172C94.2305 22.1172 94.0482 22.0586 93.8789 21.9414C93.7227 21.8112 93.638 21.6224 93.625 21.375C92.8828 21.6875 92.0951 21.8698 91.2617 21.9219C90.4284 21.9609 89.6341 21.8112 88.8789 21.4727ZM89.0156 17.2344C88.9375 17.4688 88.8659 17.7357 88.8008 18.0352C88.7357 18.3346 88.7161 18.6211 88.7422 18.8945C88.7682 19.168 88.8529 19.4219 88.9961 19.6562C89.1393 19.8776 89.3737 20.0339 89.6992 20.125C90.3633 20.3333 91.0273 20.3919 91.6914 20.3008C92.3685 20.2096 93 19.9753 93.5859 19.5977C93.638 18.9596 93.6771 18.3411 93.7031 17.7422C93.7422 17.1432 93.7552 16.5378 93.7422 15.9258C93.5208 15.7826 93.293 15.6589 93.0586 15.5547C92.8372 15.4375 92.5898 15.3594 92.3164 15.3203C92.043 15.2812 91.75 15.2552 91.4375 15.2422C91.138 15.2161 90.8451 15.2161 90.5586 15.2422C90.5326 15.2422 90.4609 15.2617 90.3438 15.3008C90.2396 15.3268 90.181 15.3464 90.168 15.3594C90.0378 15.4245 89.9206 15.5286 89.8164 15.6719C89.6471 15.9062 89.4974 16.1602 89.3672 16.4336C89.237 16.694 89.1198 16.9609 89.0156 17.2344ZM97.9219 17.6641C97.5833 17.4167 97.3424 17.1107 97.1992 16.7461C97.056 16.3685 97.0495 15.9714 97.1797 15.5547C97.3099 15.1771 97.5117 14.8385 97.7852 14.5391C98.0586 14.2396 98.3711 13.9987 98.7227 13.8164C99.1133 13.6081 99.5299 13.4453 99.9727 13.3281C100.415 13.2109 100.865 13.1458 101.32 13.1328C101.776 13.1198 102.225 13.1654 102.668 13.2695C103.124 13.3607 103.553 13.5104 103.957 13.7188C104.178 13.8359 104.302 13.9922 104.328 14.1875C104.354 14.3828 104.315 14.5651 104.211 14.7344C104.12 14.9036 103.977 15.0273 103.781 15.1055C103.586 15.1836 103.378 15.1641 103.156 15.0469C102.844 14.8776 102.492 14.7669 102.102 14.7148C101.711 14.6628 101.314 14.6628 100.91 14.7148C100.52 14.7539 100.148 14.8516 99.7969 15.0078C99.4453 15.1641 99.1523 15.3659 98.918 15.6133C98.8529 15.6784 98.8073 15.724 98.7812 15.75C98.7682 15.776 98.7422 15.8346 98.7031 15.9258L98.6641 16.1406C98.7031 16.2578 98.7357 16.3294 98.7617 16.3555C99.0221 16.5247 99.2891 16.6354 99.5625 16.6875C99.849 16.7266 100.135 16.7526 100.422 16.7656C100.826 16.7917 101.236 16.8177 101.652 16.8438C102.082 16.8568 102.492 16.9089 102.883 17C103.286 17.0911 103.658 17.2409 103.996 17.4492C104.335 17.6576 104.621 17.9635 104.855 18.3672C105.116 18.8229 105.233 19.2982 105.207 19.793C105.194 20.2747 105.005 20.7109 104.641 21.1016C104.276 21.4922 103.853 21.7656 103.371 21.9219C102.889 22.0651 102.401 22.1693 101.906 22.2344C101.464 22.2865 101.001 22.2995 100.52 22.2734C100.051 22.2474 99.5951 22.1693 99.1523 22.0391C98.7227 21.9219 98.319 21.7396 97.9414 21.4922C97.5638 21.2318 97.2513 20.8932 97.0039 20.4766C96.8867 20.2682 96.8672 20.0729 96.9453 19.8906C97.0234 19.6953 97.1406 19.5521 97.2969 19.4609C97.4661 19.3568 97.6484 19.3177 97.8438 19.3438C98.0521 19.3698 98.2214 19.487 98.3516 19.6953C98.5339 19.9948 98.7878 20.2227 99.1133 20.3789C99.4388 20.5352 99.7904 20.6458 100.168 20.7109C100.559 20.763 100.949 20.776 101.34 20.75C101.73 20.7109 102.082 20.6589 102.395 20.5938C102.564 20.5547 102.733 20.5026 102.902 20.4375C103.085 20.3594 103.234 20.2682 103.352 20.1641C103.482 20.0599 103.573 19.9427 103.625 19.8125C103.677 19.6693 103.671 19.513 103.605 19.3438C103.475 19.0182 103.254 18.7839 102.941 18.6406C102.642 18.4974 102.323 18.4128 101.984 18.3867C101.646 18.3607 101.301 18.3477 100.949 18.3477C100.598 18.3477 100.246 18.3346 99.8945 18.3086C99.543 18.2695 99.1979 18.2044 98.8594 18.1133C98.5208 18.0221 98.2083 17.8724 97.9219 17.6641ZM114.973 14.8711C115.441 14.5846 115.943 14.3372 116.477 14.1289C117.023 13.9206 117.577 13.8229 118.137 13.8359C118.085 12.7292 118.039 11.6289 118 10.5352C117.974 9.44141 117.954 8.34115 117.941 7.23438C117.941 6.98698 118.02 6.80469 118.176 6.6875C118.332 6.55729 118.508 6.49219 118.703 6.49219C118.898 6.49219 119.074 6.55729 119.23 6.6875C119.4 6.80469 119.484 6.98698 119.484 7.23438C119.497 8.52344 119.53 9.81901 119.582 11.1211C119.634 12.4102 119.686 13.6992 119.738 14.9883C119.79 16.2773 119.829 17.5729 119.855 18.875C119.882 20.1641 119.875 21.4531 119.836 22.7422C119.823 22.9896 119.732 23.1784 119.562 23.3086C119.393 23.4388 119.211 23.5039 119.016 23.5039C118.82 23.5039 118.645 23.4388 118.488 23.3086C118.332 23.1914 118.26 23.0026 118.273 22.7422C118.273 22.651 118.273 22.5599 118.273 22.4688C118.273 22.3776 118.28 22.2865 118.293 22.1953C118.163 22.1823 118.033 22.1693 117.902 22.1562C117.785 22.1562 117.668 22.1562 117.551 22.1562C117.395 22.1562 117.238 22.1562 117.082 22.1562C116.926 22.1562 116.776 22.1497 116.633 22.1367C116.294 22.1107 115.956 22.0781 115.617 22.0391C115.279 22 114.947 21.9219 114.621 21.8047C114.296 21.6745 113.99 21.5182 113.703 21.3359C113.417 21.1406 113.182 20.8867 113 20.5742C112.792 20.2487 112.616 19.8971 112.473 19.5195C112.342 19.1419 112.29 18.7513 112.316 18.3477C112.342 17.944 112.434 17.5729 112.59 17.2344C112.746 16.8958 112.941 16.5833 113.176 16.2969C113.423 16.0104 113.697 15.75 113.996 15.5156C114.309 15.2812 114.634 15.0664 114.973 14.8711ZM118.312 20.6523C118.312 18.9076 118.273 17.1562 118.195 15.3984C117.766 15.3724 117.336 15.4505 116.906 15.6328C116.49 15.8021 116.105 15.9974 115.754 16.2188C115.559 16.3359 115.344 16.4727 115.109 16.6289C114.888 16.7721 114.68 16.9414 114.484 17.1367C114.302 17.319 114.152 17.5208 114.035 17.7422C113.918 17.9635 113.859 18.2044 113.859 18.4648C113.872 18.6992 113.924 18.9531 114.016 19.2266C114.107 19.487 114.23 19.7018 114.387 19.8711C114.543 20.0404 114.719 20.1706 114.914 20.2617C115.109 20.3398 115.318 20.4049 115.539 20.457C115.799 20.5091 116.047 20.5417 116.281 20.5547C116.529 20.5677 116.783 20.5807 117.043 20.5938C117.251 20.5938 117.46 20.6068 117.668 20.6328C117.876 20.6458 118.091 20.6523 118.312 20.6523ZM126.613 12.9961C127.03 12.944 127.466 12.931 127.922 12.957C128.378 12.9701 128.814 13.0482 129.23 13.1914C129.647 13.3216 130.025 13.5234 130.363 13.7969C130.702 14.0703 130.962 14.4284 131.145 14.8711C131.275 15.1836 131.34 15.5026 131.34 15.8281C131.353 16.1406 131.307 16.4466 131.203 16.7461C131.112 17.0326 130.969 17.3125 130.773 17.5859C130.591 17.8464 130.376 18.0872 130.129 18.3086C129.595 18.7904 129.009 19.2005 128.371 19.5391C127.733 19.8776 127.062 20.138 126.359 20.3203C126.06 20.3984 125.747 20.4701 125.422 20.5352C125.109 20.5872 124.79 20.6133 124.465 20.6133C124.139 20.6133 123.82 20.5807 123.508 20.5156C123.195 20.4375 122.902 20.3138 122.629 20.1445C122.434 20.0273 122.316 19.8711 122.277 19.6758C122.199 19.4544 122.115 19.2461 122.023 19.0508C121.932 18.8555 121.841 18.6536 121.75 18.4453C121.672 18.237 121.607 18.0286 121.555 17.8203C121.503 17.612 121.477 17.3971 121.477 17.1758C121.477 16.7331 121.568 16.3164 121.75 15.9258C121.945 15.5221 122.206 15.1706 122.531 14.8711C123.078 14.3503 123.71 13.9336 124.426 13.6211C125.142 13.3086 125.871 13.1003 126.613 12.9961ZM128.82 14.6758C128.469 14.5456 128.091 14.4805 127.688 14.4805C127.258 14.4674 126.828 14.513 126.398 14.6172C125.969 14.7083 125.559 14.8385 125.168 15.0078C124.803 15.151 124.426 15.3529 124.035 15.6133C123.658 15.8607 123.378 16.1667 123.195 16.5312C123.091 16.7266 123.039 16.9284 123.039 17.1367C123.052 17.332 123.085 17.5339 123.137 17.7422C123.202 17.9375 123.28 18.1393 123.371 18.3477C123.475 18.543 123.566 18.7383 123.645 18.9336C123.853 18.9857 123.983 19.0117 124.035 19.0117C124.061 19.0247 124.094 19.0312 124.133 19.0312C124.172 19.0312 124.204 19.0312 124.23 19.0312C124.491 19.0573 124.725 19.0508 124.934 19.0117C125.077 19.0117 125.259 18.9857 125.48 18.9336C125.819 18.8685 126.145 18.7839 126.457 18.6797C126.77 18.5625 127.056 18.4388 127.316 18.3086C127.616 18.1654 127.909 18.0091 128.195 17.8398C128.482 17.6706 128.723 17.4948 128.918 17.3125C129.048 17.1953 129.172 17.0716 129.289 16.9414C129.354 16.8763 129.4 16.8242 129.426 16.7852C129.491 16.694 129.543 16.6289 129.582 16.5898C129.621 16.5378 129.654 16.4792 129.68 16.4141C129.732 16.3229 129.758 16.2513 129.758 16.1992C129.771 16.1732 129.777 16.1406 129.777 16.1016C129.79 16.0625 129.803 16.0299 129.816 16.0039V15.7891C129.803 15.737 129.797 15.6979 129.797 15.6719C129.797 15.6458 129.79 15.6198 129.777 15.5938C129.738 15.5026 129.699 15.4375 129.66 15.3984C129.634 15.3464 129.602 15.2943 129.562 15.2422C129.576 15.2552 129.556 15.2357 129.504 15.1836C129.465 15.1315 129.439 15.099 129.426 15.0859L129.27 14.9297C129.204 14.8906 129.133 14.8451 129.055 14.793C128.977 14.7409 128.898 14.7018 128.82 14.6758ZM139.992 21.7461C139.992 21.9935 139.908 22.1758 139.738 22.293C139.582 22.4232 139.406 22.4883 139.211 22.4883C139.016 22.4883 138.84 22.4232 138.684 22.293C138.527 22.1758 138.449 21.9935 138.449 21.7461C138.449 20.7305 138.566 19.7539 138.801 18.8164C139.035 17.8789 139.328 16.9479 139.68 16.0234C139.589 15.8542 139.562 15.6654 139.602 15.457C139.68 15.1836 139.849 15.0143 140.109 14.9492C140.37 14.3242 140.637 13.7057 140.91 13.0938C141.197 12.4688 141.47 11.8438 141.73 11.2188C141.991 10.5938 142.232 9.96224 142.453 9.32422C142.674 8.6862 142.857 8.03516 143 7.37109C143.039 7.17578 143.117 7.00651 143.234 6.86328C143.365 6.72005 143.54 6.64844 143.762 6.64844C143.97 6.64844 144.159 6.72656 144.328 6.88281C144.497 7.02604 144.569 7.20833 144.543 7.42969C144.504 8.1849 144.517 8.88151 144.582 9.51953C144.647 10.1445 144.745 10.7695 144.875 11.3945C145.005 12.0065 145.148 12.625 145.305 13.25C145.474 13.862 145.63 14.474 145.773 15.0859C145.917 15.6719 146.047 16.2578 146.164 16.8438C146.281 17.4297 146.47 17.9961 146.73 18.543C146.861 18.8164 146.997 19.0833 147.141 19.3438C147.284 19.5911 147.44 19.8451 147.609 20.1055C147.766 20.3398 147.909 20.5872 148.039 20.8477C148.169 21.0951 148.26 21.3685 148.312 21.668C148.339 21.8763 148.306 22.0716 148.215 22.2539C148.137 22.4362 147.987 22.5599 147.766 22.625C147.583 22.6771 147.388 22.651 147.18 22.5469C146.971 22.4427 146.848 22.2865 146.809 22.0781C146.757 21.7786 146.652 21.5117 146.496 21.2773C146.353 21.043 146.203 20.8021 146.047 20.5547C145.865 20.2682 145.695 19.9818 145.539 19.6953C145.396 19.3958 145.266 19.0898 145.148 18.7773C145.018 18.4518 144.908 18.1263 144.816 17.8008C144.725 17.4622 144.641 17.1237 144.562 16.7852C143.977 16.7461 143.397 16.7201 142.824 16.707C142.264 16.681 141.698 16.6354 141.125 16.5703C140.812 17.4036 140.546 18.25 140.324 19.1094C140.116 19.9688 140.005 20.8477 139.992 21.7461ZM141.828 14.832C141.802 14.8711 141.783 14.9167 141.77 14.9688C141.77 15.0078 141.757 15.0469 141.73 15.0859C142.147 15.125 142.557 15.151 142.961 15.1641C143.365 15.1641 143.775 15.1771 144.191 15.2031C144.048 14.5781 143.892 13.9596 143.723 13.3477C143.566 12.7227 143.423 12.0911 143.293 11.4531C143.059 12.026 142.818 12.5924 142.57 13.1523C142.323 13.6992 142.076 14.2591 141.828 14.832ZM151.184 22.2539C151.001 22.319 150.799 22.2995 150.578 22.1953C150.37 22.0911 150.253 21.9349 150.227 21.7266C150.044 20.5807 149.927 19.4479 149.875 18.3281C149.836 17.1953 149.816 16.056 149.816 14.9102C149.816 14.7148 149.868 14.5586 149.973 14.4414C150.077 14.3242 150.201 14.2461 150.344 14.207C150.487 14.168 150.637 14.1615 150.793 14.1875C150.949 14.2135 151.079 14.2786 151.184 14.3828C151.483 14.1354 151.802 13.9206 152.141 13.7383C152.479 13.556 152.818 13.4388 153.156 13.3867C153.508 13.3216 153.853 13.3411 154.191 13.4453C154.53 13.5365 154.849 13.7383 155.148 14.0508C155.396 14.3112 155.611 14.5911 155.793 14.8906C155.975 15.1771 156.138 15.4831 156.281 15.8086C156.477 15.3138 156.75 14.8581 157.102 14.4414C157.453 14.0247 157.902 13.7448 158.449 13.6016C158.853 13.4974 159.172 13.5234 159.406 13.6797C159.641 13.8229 159.862 14.0508 160.07 14.3633C160.292 14.6888 160.493 15.0208 160.676 15.3594C160.871 15.6979 161.053 16.043 161.223 16.3945C161.392 16.7461 161.555 17.0977 161.711 17.4492C161.867 17.8008 162.023 18.1458 162.18 18.4844C162.362 18.862 162.518 19.2396 162.648 19.6172C162.792 19.9818 162.883 20.3724 162.922 20.7891C162.948 21.0104 162.87 21.1992 162.688 21.3555C162.518 21.4987 162.336 21.5703 162.141 21.5703C161.919 21.5703 161.737 21.4987 161.594 21.3555C161.464 21.1992 161.385 21.0104 161.359 20.7891C161.333 20.4766 161.249 20.1771 161.105 19.8906C160.975 19.5911 160.845 19.2982 160.715 19.0117C160.572 18.7122 160.428 18.4062 160.285 18.0938C160.155 17.7812 160.018 17.4753 159.875 17.1758C159.732 16.8763 159.576 16.5768 159.406 16.2773C159.25 15.9779 159.081 15.6849 158.898 15.3984C158.872 15.3594 158.846 15.3203 158.82 15.2812C158.794 15.2422 158.768 15.2031 158.742 15.1641C158.482 15.3073 158.293 15.444 158.176 15.5742C158.059 15.7044 157.948 15.8802 157.844 16.1016C157.753 16.2969 157.674 16.5052 157.609 16.7266C157.557 16.9349 157.512 17.1497 157.473 17.3711C157.395 17.7878 157.336 18.224 157.297 18.6797C157.271 19.0182 157.271 19.3438 157.297 19.6562C157.336 19.9688 157.323 20.2943 157.258 20.6328C157.219 20.8411 157.095 20.9974 156.887 21.1016C156.691 21.2057 156.496 21.2318 156.301 21.1797C156.118 21.1276 155.982 21.0365 155.891 20.9062C155.812 20.763 155.76 20.6003 155.734 20.418C155.682 20.0013 155.624 19.5716 155.559 19.1289C155.493 18.6862 155.409 18.25 155.305 17.8203C155.201 17.3776 155.064 16.9544 154.895 16.5508C154.738 16.1341 154.53 15.75 154.27 15.3984C154.087 15.1641 153.898 15.0078 153.703 14.9297C153.521 14.8516 153.293 14.8841 153.02 15.0273C152.72 15.1836 152.427 15.3724 152.141 15.5938C151.854 15.8151 151.6 16.0625 151.379 16.3359C151.392 17.1693 151.418 18.0026 151.457 18.8359C151.509 19.6562 151.6 20.4766 151.73 21.2969C151.757 21.5182 151.724 21.7201 151.633 21.9023C151.555 22.0716 151.405 22.1888 151.184 22.2539ZM165.52 21.4727C165.077 21.2773 164.725 21.0104 164.465 20.6719C164.217 20.3203 164.042 19.9362 163.938 19.5195C163.846 19.1029 163.82 18.6732 163.859 18.2305C163.898 17.7747 163.99 17.3385 164.133 16.9219C164.25 16.5964 164.38 16.2578 164.523 15.9062C164.68 15.5547 164.862 15.2292 165.07 14.9297C165.279 14.6302 165.526 14.3763 165.812 14.168C166.099 13.9466 166.438 13.8034 166.828 13.7383C167.232 13.6732 167.635 13.6536 168.039 13.6797C168.456 13.6927 168.866 13.7318 169.27 13.7969C169.452 13.8229 169.628 13.8685 169.797 13.9336C169.966 13.9857 170.135 14.0443 170.305 14.1094C170.318 13.9141 170.402 13.7513 170.559 13.6211C170.728 13.4909 170.904 13.4258 171.086 13.4258C171.307 13.4258 171.483 13.5039 171.613 13.6602C171.757 13.8034 171.841 13.9792 171.867 14.1875C171.932 14.7865 171.958 15.3854 171.945 15.9844C171.945 16.5833 171.926 17.1823 171.887 17.7812C171.861 18.3802 171.835 18.9792 171.809 19.5781C171.796 20.1771 171.802 20.776 171.828 21.375C171.841 21.6224 171.763 21.8112 171.594 21.9414C171.438 22.0586 171.262 22.1172 171.066 22.1172C170.871 22.1172 170.689 22.0586 170.52 21.9414C170.363 21.8112 170.279 21.6224 170.266 21.375C169.523 21.6875 168.736 21.8698 167.902 21.9219C167.069 21.9609 166.275 21.8112 165.52 21.4727ZM165.656 17.2344C165.578 17.4688 165.507 17.7357 165.441 18.0352C165.376 18.3346 165.357 18.6211 165.383 18.8945C165.409 19.168 165.493 19.4219 165.637 19.6562C165.78 19.8776 166.014 20.0339 166.34 20.125C167.004 20.3333 167.668 20.3919 168.332 20.3008C169.009 20.2096 169.641 19.9753 170.227 19.5977C170.279 18.9596 170.318 18.3411 170.344 17.7422C170.383 17.1432 170.396 16.5378 170.383 15.9258C170.161 15.7826 169.934 15.6589 169.699 15.5547C169.478 15.4375 169.23 15.3594 168.957 15.3203C168.684 15.2812 168.391 15.2552 168.078 15.2422C167.779 15.2161 167.486 15.2161 167.199 15.2422C167.173 15.2422 167.102 15.2617 166.984 15.3008C166.88 15.3268 166.822 15.3464 166.809 15.3594C166.678 15.4245 166.561 15.5286 166.457 15.6719C166.288 15.9062 166.138 16.1602 166.008 16.4336C165.878 16.694 165.76 16.9609 165.656 17.2344ZM173.957 20.125C173.957 19.5651 173.996 18.9987 174.074 18.4258C174.165 17.7357 174.257 17.0521 174.348 16.375C174.439 15.6849 174.478 14.9883 174.465 14.2852C174.465 14.0378 174.543 13.849 174.699 13.7188C174.855 13.5885 175.031 13.5234 175.227 13.5234C175.422 13.5234 175.604 13.5885 175.773 13.7188C175.943 13.849 176.027 14.0378 176.027 14.2852C176.535 14.2461 177.017 14.2266 177.473 14.2266C177.993 14.2396 178.436 14.3893 178.801 14.6758C179.165 14.9622 179.439 15.3464 179.621 15.8281C179.777 16.2708 179.868 16.7266 179.895 17.1953C179.921 17.6641 179.94 18.1328 179.953 18.6016C179.966 19.2656 179.986 19.9297 180.012 20.5938C180.038 21.2448 180.051 21.9023 180.051 22.5664C180.051 22.8268 179.966 23.0156 179.797 23.1328C179.641 23.263 179.465 23.3281 179.27 23.3281C179.087 23.3281 178.911 23.263 178.742 23.1328C178.586 23.0156 178.508 22.8268 178.508 22.5664C178.508 21.9414 178.495 21.3294 178.469 20.7305C178.456 20.1315 178.436 19.5195 178.41 18.8945C178.384 18.556 178.371 18.2109 178.371 17.8594C178.384 17.4948 178.358 17.1628 178.293 16.8633C178.254 16.681 178.215 16.5247 178.176 16.3945C178.137 16.2513 178.065 16.1146 177.961 15.9844C177.935 15.9323 177.876 15.8867 177.785 15.8477C177.707 15.8086 177.635 15.7891 177.57 15.7891C177.375 15.7891 177.193 15.8021 177.023 15.8281C176.854 15.8542 176.678 15.8932 176.496 15.9453C176.418 15.9714 176.34 15.9974 176.262 16.0234C176.184 16.0495 176.112 16.082 176.047 16.1211C175.917 16.5898 175.819 17.0391 175.754 17.4688C175.702 17.8854 175.65 18.3086 175.598 18.7383C175.559 19.0508 175.533 19.3698 175.52 19.6953C175.52 20.0078 175.507 20.3203 175.48 20.6328C175.467 20.9453 175.428 21.2578 175.363 21.5703C175.311 21.8828 175.214 22.1823 175.07 22.4688C174.953 22.6901 174.797 22.8138 174.602 22.8398C174.406 22.8789 174.224 22.8464 174.055 22.7422C173.898 22.651 173.775 22.5078 173.684 22.3125C173.605 22.1172 173.618 21.9089 173.723 21.6875C173.84 21.4531 173.905 21.1992 173.918 20.9258C173.931 20.6523 173.944 20.3854 173.957 20.125ZM182.238 21.6094C182.056 21.5443 181.9 21.4206 181.77 21.2383C181.652 21.043 181.633 20.8477 181.711 20.6523C181.932 20.0404 182.082 19.4219 182.16 18.7969C182.238 18.1719 182.29 17.5339 182.316 16.8828C182.329 16.6875 182.336 16.4987 182.336 16.3164C182.336 16.1211 182.342 15.9258 182.355 15.7305C182.316 15.5742 182.329 15.4245 182.395 15.2812C182.421 14.9036 182.447 14.526 182.473 14.1484C182.499 13.7578 182.538 13.3737 182.59 12.9961C182.655 12.4232 182.72 11.8568 182.785 11.2969C182.863 10.724 182.915 10.1445 182.941 9.55859C182.967 9.02474 182.993 8.4974 183.02 7.97656C183.059 7.44271 183.195 6.9349 183.43 6.45312C183.547 6.23177 183.703 6.10807 183.898 6.08203C184.094 6.04297 184.276 6.07552 184.445 6.17969C184.615 6.27083 184.738 6.41406 184.816 6.60938C184.908 6.80469 184.895 7.01302 184.777 7.23438C184.673 7.45573 184.602 7.68359 184.562 7.91797C184.523 8.15234 184.497 8.39323 184.484 8.64062C184.484 8.88802 184.484 9.13542 184.484 9.38281C184.484 9.63021 184.478 9.87109 184.465 10.1055C184.4 10.6914 184.335 11.2773 184.27 11.8633C184.204 12.4362 184.139 13.0156 184.074 13.6016C184.621 13.3281 185.227 13.1784 185.891 13.1523C186.411 13.1393 186.939 13.2305 187.473 13.4258C188.02 13.6081 188.462 13.9076 188.801 14.3242C188.996 14.5716 189.152 14.8451 189.27 15.1445C189.387 15.431 189.478 15.737 189.543 16.0625C189.621 16.375 189.673 16.694 189.699 17.0195C189.725 17.332 189.751 17.638 189.777 17.9375C189.816 18.5495 189.829 19.1615 189.816 19.7734C189.816 20.3724 189.803 20.9844 189.777 21.6094C189.777 21.8568 189.693 22.0391 189.523 22.1562C189.354 22.2865 189.172 22.3516 188.977 22.3516C188.781 22.3516 188.605 22.2865 188.449 22.1562C188.293 22.0391 188.221 21.8568 188.234 21.6094C188.247 21.0885 188.26 20.5677 188.273 20.0469C188.286 19.526 188.28 19.0052 188.254 18.4844C188.228 18.224 188.208 17.957 188.195 17.6836C188.182 17.4102 188.15 17.1367 188.098 16.8633C188.072 16.7331 188.046 16.6094 188.02 16.4922C188.007 16.362 187.98 16.2318 187.941 16.1016C187.928 15.9974 187.896 15.8867 187.844 15.7695C187.805 15.6523 187.779 15.5872 187.766 15.5742C187.74 15.5352 187.72 15.5026 187.707 15.4766C187.694 15.4375 187.674 15.3984 187.648 15.3594C187.531 15.2292 187.46 15.1576 187.434 15.1445C187.382 15.1055 187.336 15.0794 187.297 15.0664C187.258 15.0404 187.219 15.0143 187.18 14.9883C187.036 14.9102 186.874 14.8451 186.691 14.793C186.509 14.7409 186.333 14.7148 186.164 14.7148C185.721 14.6888 185.305 14.7669 184.914 14.9492C184.536 15.1315 184.198 15.4115 183.898 15.7891C183.872 16.6875 183.827 17.5794 183.762 18.4648C183.697 19.3372 183.508 20.2031 183.195 21.0625C183.13 21.2578 183.007 21.4141 182.824 21.5312C182.655 21.6484 182.46 21.6745 182.238 21.6094ZM193 21.4727C192.557 21.2773 192.206 21.0104 191.945 20.6719C191.698 20.3203 191.522 19.9362 191.418 19.5195C191.327 19.1029 191.301 18.6732 191.34 18.2305C191.379 17.7747 191.47 17.3385 191.613 16.9219C191.73 16.5964 191.861 16.2578 192.004 15.9062C192.16 15.5547 192.342 15.2292 192.551 14.9297C192.759 14.6302 193.007 14.3763 193.293 14.168C193.579 13.9466 193.918 13.8034 194.309 13.7383C194.712 13.6732 195.116 13.6536 195.52 13.6797C195.936 13.6927 196.346 13.7318 196.75 13.7969C196.932 13.8229 197.108 13.8685 197.277 13.9336C197.447 13.9857 197.616 14.0443 197.785 14.1094C197.798 13.9141 197.883 13.7513 198.039 13.6211C198.208 13.4909 198.384 13.4258 198.566 13.4258C198.788 13.4258 198.964 13.5039 199.094 13.6602C199.237 13.8034 199.322 13.9792 199.348 14.1875C199.413 14.7865 199.439 15.3854 199.426 15.9844C199.426 16.5833 199.406 17.1823 199.367 17.7812C199.341 18.3802 199.315 18.9792 199.289 19.5781C199.276 20.1771 199.283 20.776 199.309 21.375C199.322 21.6224 199.243 21.8112 199.074 21.9414C198.918 22.0586 198.742 22.1172 198.547 22.1172C198.352 22.1172 198.169 22.0586 198 21.9414C197.844 21.8112 197.759 21.6224 197.746 21.375C197.004 21.6875 196.216 21.8698 195.383 21.9219C194.549 21.9609 193.755 21.8112 193 21.4727ZM193.137 17.2344C193.059 17.4688 192.987 17.7357 192.922 18.0352C192.857 18.3346 192.837 18.6211 192.863 18.8945C192.889 19.168 192.974 19.4219 193.117 19.6562C193.26 19.8776 193.495 20.0339 193.82 20.125C194.484 20.3333 195.148 20.3919 195.812 20.3008C196.49 20.2096 197.121 19.9753 197.707 19.5977C197.759 18.9596 197.798 18.3411 197.824 17.7422C197.863 17.1432 197.876 16.5378 197.863 15.9258C197.642 15.7826 197.414 15.6589 197.18 15.5547C196.958 15.4375 196.711 15.3594 196.438 15.3203C196.164 15.2812 195.871 15.2552 195.559 15.2422C195.259 15.2161 194.966 15.2161 194.68 15.2422C194.654 15.2422 194.582 15.2617 194.465 15.3008C194.361 15.3268 194.302 15.3464 194.289 15.3594C194.159 15.4245 194.042 15.5286 193.938 15.6719C193.768 15.9062 193.618 16.1602 193.488 16.4336C193.358 16.694 193.241 16.9609 193.137 17.2344ZM197.492 12C197.219 12.1042 196.932 12.1367 196.633 12.0977C196.346 12.0456 196.086 11.9284 195.852 11.7461C195.669 11.6029 195.493 11.4466 195.324 11.2773C195.155 11.0951 194.953 10.9844 194.719 10.9453C194.497 10.9062 194.283 10.9453 194.074 11.0625C193.879 11.1797 193.71 11.3099 193.566 11.4531C193.384 11.6354 193.189 11.7135 192.98 11.6875C192.785 11.6615 192.616 11.5833 192.473 11.4531C192.342 11.3099 192.258 11.1406 192.219 10.9453C192.193 10.737 192.271 10.5417 192.453 10.3594C192.674 10.138 192.922 9.94922 193.195 9.79297C193.469 9.63672 193.755 9.52604 194.055 9.46094C194.367 9.38281 194.673 9.36979 194.973 9.42188C195.285 9.46094 195.585 9.5651 195.871 9.73438C196.118 9.90365 196.333 10.0859 196.516 10.2812C196.581 10.3464 196.639 10.4049 196.691 10.457C196.743 10.4961 196.802 10.5286 196.867 10.5547C196.945 10.5677 197.023 10.5482 197.102 10.4961C197.18 10.431 197.258 10.3594 197.336 10.2812C197.414 10.1901 197.486 10.099 197.551 10.0078C197.616 9.90365 197.668 9.82552 197.707 9.77344C197.85 9.60417 198.033 9.52604 198.254 9.53906C198.475 9.55208 198.658 9.63021 198.801 9.77344C198.97 9.92969 199.048 10.112 199.035 10.3203C199.022 10.5156 198.944 10.6979 198.801 10.8672C198.618 11.0885 198.43 11.3099 198.234 11.5312C198.039 11.7396 197.792 11.8958 197.492 12Z" fill="#292524"/>
</svg>
